<?xml version="1.0" standalone="no"?>
<!DOCTYPE svg PUBLIC "-//W3C//DTD SVG 20010904//EN"
 "http://www.w3.org/TR/2001/REC-SVG-20010904/DTD/svg10.dtd">
<svg version="1.0" xmlns="http://www.w3.org/2000/svg"
 width="300.000000pt" height="300.000000pt" viewBox="0 0 300.000000 300.000000"
 preserveAspectRatio="xMidYMid meet">

<g transform="translate(0.000000,300.000000) scale(0.100000,-0.100000)"
fill="#000000" stroke="none">
<path d="M1315 2719 c-647 -100 -1102 -650 -1072 -1294 11 -235 75 -438 200
-628 332 -504 965 -701 1524 -473 381 156 660 494 749 908 26 117 26 381 1
496 -36 164 -94 304 -180 435 -186 282 -462 470 -797 543 -89 19 -338 27 -425
13z m437 -310 c119 -25 246 -118 311 -229 58 -99 72 -259 34 -366 l-15 -42 36
-6 c61 -10 153 -68 195 -122 101 -132 103 -345 4 -492 -25 -37 -101 -98 -167
-133 -43 -23 -56 -24 -266 -27 -195 -3 -223 -2 -237 13 -14 14 -17 41 -17 174
0 166 4 181 47 181 13 0 23 2 23 5 0 7 -143 176 -146 172 -1 -1 -34 -40 -74
-87 -69 -80 -72 -85 -49 -88 49 -7 49 -7 49 -293 l0 -269 55 0 c44 0 56 -4 65
-20 6 -11 8 -26 4 -33 -28 -45 -261 -307 -274 -307 -16 0 -263 289 -268 316
-7 28 19 44 69 44 l49 0 0 94 0 94 -137 4 c-166 4 -194 15 -293 118 -112 115
-157 238 -148 407 4 71 10 99 32 142 35 67 113 151 169 181 l42 22 0 62 c1 89
28 156 88 223 74 81 147 113 252 112 44 0 89 -4 100 -8 15 -6 30 2 67 39 104
102 259 148 400 119z"/>
<path d="M1541 2320 c-61 -22 -134 -75 -174 -125 -31 -39 -43 -41 -107 -19
-94 33 -194 2 -272 -85 -54 -60 -71 -113 -66 -207 l3 -69 -57 -28 c-114 -57
-198 -183 -198 -295 0 -60 24 -161 49 -211 31 -60 117 -147 173 -175 48 -24
61 -26 194 -26 116 0 145 -3 158 -16 13 -13 16 -42 16 -163 0 -159 -4 -171
-53 -171 -28 0 -27 -2 48 -90 l77 -89 75 87 74 87 -33 5 -33 5 -3 273 -2 272
-54 0 c-55 0 -81 15 -74 44 6 28 258 316 276 316 10 0 54 -44 102 -102 189
-227 174 -206 162 -233 -10 -22 -18 -25 -62 -25 l-50 0 0 -106 0 -106 193 4
c190 3 192 3 240 31 114 67 169 162 170 298 1 64 -4 85 -30 141 -45 96 -118
145 -232 156 -80 8 -84 18 -44 100 25 52 28 67 28 162 0 96 -2 110 -29 163
-37 72 -118 150 -193 185 -77 35 -193 41 -272 12z"/>
</g>
</svg>
