<?xml version="1.0" standalone="no"?>
<!DOCTYPE svg PUBLIC "-//W3C//DTD SVG 20010904//EN"
 "http://www.w3.org/TR/2001/REC-SVG-20010904/DTD/svg10.dtd">
<svg version="1.0" xmlns="http://www.w3.org/2000/svg"
 width="600.000000pt" height="250.000000pt" viewBox="0 0 600.000000 250.000000"
 preserveAspectRatio="xMidYMid meet">

<g transform="translate(0.000000,250.000000) scale(0.100000,-0.100000)"
fill="#fbe8a6" stroke="none">
<path d="M1009 2126 c-54 -14 -125 -54 -157 -89 -21 -22 -28 -24 -95 -19 -90
5 -159 -20 -213 -80 -47 -52 -64 -95 -64 -161 0 -53 0 -54 -51 -87 -100 -65
-144 -155 -137 -282 6 -112 40 -188 119 -263 77 -74 107 -85 224 -85 l95 0 0
-74 0 -75 -42 -3 c-38 -3 -43 -6 -41 -25 3 -27 160 -219 186 -228 23 -8 37 4
139 122 91 106 96 126 31 131 l-43 3 -2 207 -3 207 -27 5 -27 5 58 65 c33 36
61 63 63 60 2 -3 27 -33 56 -67 l53 -62 -28 -3 -28 -3 -3 -119 c-2 -78 1 -123
9 -132 9 -11 48 -14 178 -14 195 0 220 8 304 92 62 62 82 116 82 223 0 126
-78 236 -186 265 -36 10 -40 14 -34 33 4 12 9 58 12 102 4 66 1 90 -16 136
-63 166 -244 261 -412 215z m214 -76 c137 -69 200 -240 138 -372 -33 -69 -27
-82 42 -89 79 -9 131 -45 163 -112 61 -131 4 -290 -123 -344 -22 -9 -78 -13
-173 -13 l-140 0 0 79 0 80 42 3 c30 2 44 8 46 19 3 15 -152 210 -182 231 -23
16 -38 4 -128 -98 -110 -125 -117 -147 -46 -152 l48 -3 2 -212 c3 -209 3 -211
25 -217 21 -5 18 -10 -35 -69 l-58 -64 -56 64 c-52 58 -55 64 -35 68 12 1 25
8 29 15 9 13 11 218 2 240 -5 13 -25 16 -120 16 -94 0 -122 4 -153 19 -44 23
-102 85 -129 138 -27 52 -45 148 -37 191 15 80 84 166 158 197 l39 16 -7 49
c-12 85 26 162 100 205 58 34 102 39 159 20 l49 -17 51 50 c78 76 118 93 216
89 45 -2 80 -10 113 -27z"/>
<path d="M1586 1075 c-3 -9 -6 -149 -6 -310 0 -328 -1 -325 68 -325 48 0 65
12 60 41 -2 18 -10 25 -30 27 l-28 3 -2 287 -3 287 -26 3 c-17 2 -29 -3 -33
-13z"/>
<path d="M3256 1075 c-3 -9 -6 -64 -6 -121 l0 -104 -42 27 c-37 25 -51 28
-124 28 -75 0 -86 -3 -125 -30 -24 -17 -57 -53 -74 -80 -56 -90 -35 -221 46
-289 53 -45 89 -58 154 -58 70 0 123 22 173 73 58 59 63 88 60 339 l-3 225
-26 3 c-17 2 -29 -3 -33 -13z m-79 -256 c49 -30 73 -77 73 -141 0 -172 -225
-228 -309 -77 -37 66 -22 147 36 202 54 51 133 57 200 16z"/>
<path d="M3414 1076 c-3 -8 -4 -113 -2 -233 3 -182 6 -225 21 -258 67 -150
257 -186 380 -71 61 57 85 173 51 254 -53 128 -209 181 -330 112 l-53 -30 -3
118 -3 117 -28 3 c-17 2 -29 -2 -33 -12z m278 -236 c52 -15 104 -67 117 -118
16 -59 -1 -116 -48 -163 -67 -67 -157 -65 -227 5 -69 68 -72 150 -8 224 47 55
97 71 166 52z"/>
<path d="M1233 886 c-88 -42 -140 -134 -130 -232 14 -137 143 -233 275 -204
66 15 124 55 120 83 -4 30 -40 33 -77 7 -44 -33 -106 -36 -161 -8 -118 61
-123 209 -10 286 45 31 130 28 177 -6 39 -28 60 -28 69 0 5 17 0 28 -27 50
-64 53 -153 62 -236 24z"/>
<path d="M1950 895 c-98 -31 -160 -116 -160 -218 0 -135 92 -229 223 -229 174
-1 286 175 210 327 -51 101 -169 153 -273 120z m123 -69 c18 -7 46 -29 64 -49
57 -65 56 -142 -4 -208 -65 -71 -153 -76 -224 -12 -68 61 -75 147 -16 218 50
61 114 79 180 51z"/>
<path d="M2342 898 c-15 -15 -16 -237 -2 -289 15 -55 50 -100 102 -132 65 -41
156 -42 222 -3 55 32 56 32 56 2 0 -26 14 -36 43 -28 16 4 17 21 15 231 l-3
226 -25 0 -25 0 -6 -135 c-6 -148 -15 -178 -69 -223 -56 -48 -126 -47 -189 0
-51 39 -61 75 -61 216 0 120 -6 147 -35 147 -6 0 -16 -5 -23 -12z"/>
<path d="M4103 894 c-23 -8 -60 -34 -83 -56 -111 -111 -79 -296 64 -370 95
-49 282 0 224 59 -14 13 -21 13 -69 -2 -73 -23 -123 -10 -173 45 -20 22 -36
45 -36 50 0 6 68 10 184 10 218 0 217 0 198 88 -23 110 -102 181 -209 188 -37
2 -74 -2 -100 -12z m162 -77 c34 -19 84 -84 85 -109 0 -5 -74 -8 -165 -8
l-165 0 11 28 c6 15 20 38 32 51 59 64 132 78 202 38z"/>
<path d="M4648 899 c-47 -14 -113 -71 -138 -120 -24 -45 -27 -143 -7 -192 21
-48 64 -95 110 -119 75 -38 188 -24 250 30 16 14 17 13 17 -11 0 -31 27 -49
52 -36 16 9 18 25 18 132 0 136 -7 173 -47 229 -52 76 -161 113 -255 87z m160
-86 c53 -39 74 -82 70 -144 -8 -117 -117 -189 -221 -145 -70 29 -119 117 -102
183 10 45 50 98 86 117 45 22 130 17 167 -11z"/>
<path d="M5047 893 c-12 -11 -8 -428 4 -440 6 -6 19 -8 30 -6 18 5 19 16 19
139 0 148 9 186 55 222 33 26 100 29 133 6 44 -31 52 -63 52 -213 0 -128 2
-141 19 -151 15 -7 23 -6 35 6 13 13 16 42 16 161 l0 145 34 34 c29 29 41 34
81 34 40 0 52 -5 81 -34 l34 -34 0 -151 c0 -136 2 -151 19 -160 13 -7 23 -6
36 2 15 12 16 30 13 168 -3 153 -4 157 -32 197 -61 88 -173 106 -263 43 l-45
-32 -27 25 c-52 49 -126 59 -198 27 -40 -19 -41 -19 -46 0 -5 18 -37 26 -50
12z"/>
</g>
</svg>
